<?xml version="1.0" encoding="UTF-8" standalone="no"?>
<!-- Generator: Adobe Illustrator 19.0.0, SVG Export Plug-In . SVG Version: 6.00 Build 0)  -->

<svg
   xmlns:dc="http://purl.org/dc/elements/1.1/"
   xmlns:cc="http://creativecommons.org/ns#"
   xmlns:rdf="http://www.w3.org/1999/02/22-rdf-syntax-ns#"
   xmlns:svg="http://www.w3.org/2000/svg"
   xmlns="http://www.w3.org/2000/svg"
   xmlns:sodipodi="http://sodipodi.sourceforge.net/DTD/sodipodi-0.dtd"
   xmlns:inkscape="http://www.inkscape.org/namespaces/inkscape"
   version="1.1"
   id="Layer_1"
   x="0px"
   y="0px"
   viewBox="0 0 84.679972 136.943"
   xml:space="preserve"
   inkscape:version="0.91 r13725"
   sodipodi:docname="human-figure.svg"
   width="84.67997"
   height="136.94299"><metadata
     id="metadata110"><rdf:RDF><cc:Work
         rdf:about=""><dc:format>image/svg+xml</dc:format><dc:type
           rdf:resource="http://purl.org/dc/dcmitype/StillImage" /><dc:title /></cc:Work></rdf:RDF></metadata><defs
     id="defs108" /><sodipodi:namedview
     pagecolor="#ffffff"
     bordercolor="#666666"
     borderopacity="1"
     objecttolerance="10"
     gridtolerance="10"
     guidetolerance="10"
     inkscape:pageopacity="0"
     inkscape:pageshadow="2"
     inkscape:window-width="2560"
     inkscape:window-height="1349"
     id="namedview106"
     showgrid="false"
     fit-margin-top="0"
     fit-margin-left="0"
     fit-margin-right="0"
     fit-margin-bottom="0"
     inkscape:zoom="0.82099523"
     inkscape:cx="-232.10029"
     inkscape:cy="-9.2210645"
     inkscape:window-x="0"
     inkscape:window-y="46"
     inkscape:window-maximized="1"
     inkscape:current-layer="Layer_1" /><g
     id="g4175"><g
       transform="translate(-102.37968,0)"
       id="g28"><path
         style="fill:#505967"
         d="m 144.208,15.894 c 8.086,0 14.686,6.599 14.686,14.686 0,8.087 -6.599,14.655 -14.686,14.655 -8.086,0 -14.655,-6.568 -14.655,-14.655 0,-8.087 6.569,-14.686 14.655,-14.686 z"
         id="path30"
         inkscape:connector-curvature="0" /></g><g
       transform="translate(-102.37968,0)"
       id="g32"><path
         style="fill:#eaeeef"
         d="m 171.132,118.849 c 0.093,0.713 -0.217,1.239 -0.465,1.549 -0.279,0.279 -0.744,0.651 -1.456,0.651 l -48.983,0 c -0.713,0 -1.177,-0.372 -1.456,-0.651 -0.248,-0.31 -0.558,-0.837 -0.465,-1.549 l 5.05,-37.179 c 0.124,-0.96 0.929,-1.673 1.89,-1.673 l 38.945,0 c 0.96,0 1.766,0.713 1.89,1.673 l 5.05,37.179 z"
         id="path34"
         inkscape:connector-curvature="0" /></g><g
       transform="translate(-102.37968,0)"
       id="g44"><path
         style="fill:#2d213f"
         d="m 186.902,116.742 c 0.682,5.081 -0.868,10.255 -4.276,14.128 -3.377,3.873 -8.272,6.073 -13.415,6.073 l -48.983,0 c -5.143,0 -10.038,-2.2 -13.415,-6.073 -3.408,-3.873 -4.957,-9.047 -4.276,-14.128 l 5.05,-37.21 c 1.177,-8.83 8.799,-15.46 17.66,-15.46 l 38.945,0 c 8.861,0 16.483,6.63 17.66,15.46 l 5.05,37.21 z m -16.235,3.656 c 0.248,-0.31 0.558,-0.837 0.465,-1.549 l -5.05,-37.179 c -0.124,-0.96 -0.929,-1.673 -1.89,-1.673 l -38.945,0 c -0.96,0 -1.766,0.713 -1.89,1.673 l -5.05,37.179 c -0.093,0.713 0.217,1.239 0.465,1.549 0.279,0.279 0.744,0.651 1.456,0.651 l 48.983,0 c 0.713,0 1.178,-0.372 1.456,-0.651 z"
         id="path46"
         inkscape:connector-curvature="0" /></g><g
       transform="translate(-102.37968,0)"
       id="g52"><path
         style="fill:#2d213f"
         d="m 144.208,0 c 16.885,0 30.58,13.725 30.58,30.58 0,16.855 -13.694,30.58 -30.58,30.58 -16.855,0 -30.58,-13.725 -30.58,-30.58 0,-16.855 13.726,-30.58 30.58,-30.58 z m 14.686,30.58 c 0,-8.086 -6.599,-14.686 -14.686,-14.686 -8.086,0 -14.655,6.599 -14.655,14.686 0,8.087 6.568,14.655 14.655,14.655 8.087,0 14.686,-6.569 14.686,-14.655 z"
         id="path54"
         inkscape:connector-curvature="0" /></g><g
       transform="translate(-102.37968,0)"
       id="g64"><path
         inkscape:connector-curvature="0"
         id="path66"
         d="m 120.689,121.049 48.522,0 c 0.713,0 1.177,-0.372 1.456,-0.651 0.248,-0.31 0.558,-0.837 0.465,-1.549 l -5.05,-37.179 c -0.04,-0.316 -0.173,-0.589 -0.344,-0.833 -5.58,11.9 -18.032,26.707 -45.049,40.212 z"
         style="fill:#c5cbcf" /></g></g><g
     id="g76"
     transform="translate(-102.37968,0)" /><g
     id="g78"
     transform="translate(-102.37968,0)" /><g
     id="g80"
     transform="translate(-102.37968,0)" /><g
     id="g82"
     transform="translate(-102.37968,0)" /><g
     id="g84"
     transform="translate(-102.37968,0)" /><g
     id="g86"
     transform="translate(-102.37968,0)" /><g
     id="g88"
     transform="translate(-102.37968,0)" /><g
     id="g90"
     transform="translate(-102.37968,0)" /><g
     id="g92"
     transform="translate(-102.37968,0)" /><g
     id="g94"
     transform="translate(-102.37968,0)" /><g
     id="g96"
     transform="translate(-102.37968,0)" /><g
     id="g98"
     transform="translate(-102.37968,0)" /><g
     id="g100"
     transform="translate(-102.37968,0)" /><g
     id="g102"
     transform="translate(-102.37968,0)" /><g
     id="g104"
     transform="translate(-102.37968,0)" /></svg>