<?xml version="1.0" encoding="iso-8859-1"?>
<!-- Generator: Adobe Illustrator 19.0.0, SVG Export Plug-In . SVG Version: 6.00 Build 0)  -->
<svg version="1.1" id="Layer_1" xmlns="http://www.w3.org/2000/svg" xmlns:xlink="http://www.w3.org/1999/xlink" x="0px" y="0px"
	 viewBox="0 0 287.456 287.456" style="enable-background:new 0 0 287.456 287.456;" xml:space="preserve">
<g>
	<g>
		<g>
			<g id="XMLID_38_">
				<g>
					<g>
						<path style="fill:#505967;" d="M43.794,166.407c8.086,0,14.655,6.568,14.655,14.655s-6.568,14.686-14.655,14.686
							s-14.686-6.599-14.686-14.686C29.108,172.976,35.707,166.407,43.794,166.407z"/>
					</g>
					<g>
						<path style="fill:#505967;" d="M242.671,166.407c8.086,0,14.655,6.568,14.655,14.655s-6.568,14.686-14.655,14.686
							c-8.086,0-14.655-6.599-14.655-14.686C228.016,172.976,234.584,166.407,242.671,166.407z"/>
					</g>
					<g>
						<path style="fill:#EAEEEF;" d="M269.564,269.362c0.093,0.713-0.186,1.208-0.465,1.518c-0.248,0.31-0.713,0.651-1.425,0.651
							H218.69c-0.744,0-1.208-0.341-1.456-0.651c-0.279-0.31-0.558-0.806-0.465-1.518l5.019-37.21
							c0.124-0.96,0.96-1.673,1.921-1.673h38.914c0.96,0,1.797,0.713,1.921,1.673L269.564,269.362z"/>
					</g>
					<g>
						<path style="fill:#EAEEEF;" d="M70.687,269.362c0.093,0.713-0.186,1.208-0.465,1.518c-0.248,0.31-0.713,0.651-1.456,0.651
							H19.782c-0.713,0-1.177-0.341-1.425-0.651c-0.279-0.31-0.558-0.806-0.465-1.518l5.019-37.21
							c0.124-0.96,0.96-1.673,1.921-1.673h38.914c0.96,0,1.766,0.713,1.921,1.673L70.687,269.362z"/>
					</g>
					<g>
						<path style="fill:#505967;" d="M144.208,15.894c8.086,0,14.686,6.599,14.686,14.686s-6.599,14.655-14.686,14.655
							c-8.086,0-14.655-6.568-14.655-14.655S136.122,15.894,144.208,15.894z"/>
					</g>
					<g>
						<path style="fill:#EAEEEF;" d="M171.132,118.849c0.093,0.713-0.217,1.239-0.465,1.549c-0.279,0.279-0.744,0.651-1.456,0.651
							h-48.983c-0.713,0-1.177-0.372-1.456-0.651c-0.248-0.31-0.558-0.837-0.465-1.549l5.05-37.179
							c0.124-0.96,0.929-1.673,1.89-1.673h38.945c0.96,0,1.766,0.713,1.89,1.673L171.132,118.849z"/>
					</g>
					<g>
						<path style="fill:#2D213F;" d="M285.334,267.224c0.682,5.112-0.867,10.255-4.245,14.128
							c-3.377,3.873-8.272,6.104-13.415,6.104H218.69c-5.174,0-10.069-2.231-13.446-6.104c-3.377-3.873-4.926-9.016-4.245-14.128
							l5.019-37.21c1.208-8.799,8.799-15.46,17.691-15.46h38.914c8.892,0,16.483,6.661,17.691,15.46L285.334,267.224z
							 M269.099,270.88c0.279-0.31,0.558-0.806,0.465-1.518l-5.019-37.21c-0.124-0.96-0.96-1.673-1.921-1.673H223.71
							c-0.96,0-1.797,0.713-1.921,1.673l-5.019,37.21c-0.093,0.713,0.186,1.208,0.465,1.518c0.248,0.31,0.713,0.651,1.456,0.651
							h48.983C268.386,271.531,268.851,271.19,269.099,270.88z"/>
					</g>
					<g>
						<path style="fill:#2D213F;" d="M242.671,150.482c16.855,0,30.58,13.725,30.58,30.58s-13.725,30.58-30.58,30.58
							s-30.58-13.725-30.58-30.58S225.816,150.482,242.671,150.482z M257.326,181.062c0-8.086-6.568-14.655-14.655-14.655
							c-8.086,0-14.655,6.568-14.655,14.655s6.568,14.686,14.655,14.686C250.757,195.748,257.326,189.148,257.326,181.062z"/>
					</g>
					<g>
						<path style="fill:#2D213F;" d="M186.902,116.742c0.682,5.081-0.868,10.255-4.276,14.128
							c-3.377,3.873-8.272,6.073-13.415,6.073h-48.983c-5.143,0-10.038-2.2-13.415-6.073c-3.408-3.873-4.957-9.047-4.276-14.128
							l5.05-37.21c1.177-8.83,8.799-15.46,17.66-15.46h38.945c8.861,0,16.483,6.63,17.66,15.46L186.902,116.742z M170.667,120.398
							c0.248-0.31,0.558-0.837,0.465-1.549l-5.05-37.179c-0.124-0.96-0.929-1.673-1.89-1.673h-38.945
							c-0.96,0-1.766,0.713-1.89,1.673l-5.05,37.179c-0.093,0.713,0.217,1.239,0.465,1.549c0.279,0.279,0.744,0.651,1.456,0.651
							h48.983C169.924,121.049,170.389,120.677,170.667,120.398z"/>
					</g>
					<g>
						<path style="fill:#2D213F;" d="M184.702,232.338c2.974,3.222,2.788,8.241-0.434,11.247c-1.518,1.425-3.47,2.107-5.422,2.107
							c-2.138,0-4.245-0.837-5.825-2.541l-28.194-30.394l-28.969,28.969c-1.549,1.549-3.594,2.324-5.608,2.324
							c-2.045,0-4.09-0.775-5.639-2.324c-3.098-3.129-3.098-8.148,0-11.247l32.47-32.501v-43.747c0-4.4,3.563-7.963,7.963-7.963
							s7.963,3.563,7.963,7.963v43.933L184.702,232.338z"/>
					</g>
					<g>
						<path style="fill:#2D213F;" d="M144.208,0c16.885,0,30.58,13.725,30.58,30.58s-13.694,30.58-30.58,30.58
							c-16.855,0-30.58-13.725-30.58-30.58S127.354,0,144.208,0z M158.894,30.58c0-8.086-6.599-14.686-14.686-14.686
							c-8.086,0-14.655,6.599-14.655,14.686s6.568,14.655,14.655,14.655S158.894,38.666,158.894,30.58z"/>
					</g>
					<g>
						<path style="fill:#2D213F;" d="M86.457,267.224c0.682,5.112-0.868,10.255-4.245,14.128c-3.408,3.873-8.303,6.104-13.446,6.104
							H19.782c-5.143,0-10.038-2.231-13.415-6.104c-3.377-3.873-4.926-9.016-4.245-14.128l5.019-37.21
							c1.208-8.799,8.799-15.46,17.691-15.46h38.914c8.892,0,16.483,6.661,17.66,15.46L86.457,267.224z M70.222,270.88
							c0.279-0.31,0.558-0.806,0.465-1.518l-5.019-37.21c-0.155-0.96-0.96-1.673-1.921-1.673H24.833
							c-0.96,0-1.797,0.713-1.921,1.673l-5.019,37.21c-0.093,0.713,0.186,1.208,0.465,1.518c0.248,0.31,0.713,0.651,1.425,0.651
							h48.983C69.509,271.531,69.974,271.19,70.222,270.88z"/>
					</g>
					<g>
						<path style="fill:#2D213F;" d="M43.794,150.482c16.855,0,30.58,13.725,30.58,30.58s-13.725,30.58-30.58,30.58
							c-16.885,0-30.58-13.725-30.58-30.58S26.908,150.482,43.794,150.482z M58.449,181.062c0-8.086-6.568-14.655-14.655-14.655
							s-14.686,6.568-14.686,14.655s6.599,14.686,14.686,14.686S58.449,189.148,58.449,181.062z"/>
					</g>
				</g>
			</g>
		</g>
		<g>
			<path style="fill:#C5CBCF;" d="M120.689,121.049h48.522c0.713,0,1.177-0.372,1.456-0.651c0.248-0.31,0.558-0.837,0.465-1.549
				l-5.05-37.179c-0.04-0.316-0.173-0.589-0.344-0.833C160.158,92.737,147.706,107.544,120.689,121.049z"/>
		</g>
		<g>
			<path style="fill:#C5CBCF;" d="M20.359,271.55H68.88c0.713,0,1.177-0.372,1.456-0.651c0.248-0.31,0.558-0.837,0.465-1.549
				l-5.05-37.179c-0.04-0.316-0.174-0.589-0.344-0.833C59.827,243.238,47.375,258.044,20.359,271.55z"/>
		</g>
		<g>
			<path style="fill:#C5CBCF;" d="M219.205,271.55h48.522c0.713,0,1.177-0.372,1.456-0.651c0.248-0.31,0.558-0.837,0.465-1.549
				l-5.05-37.179c-0.04-0.316-0.173-0.589-0.344-0.833C258.673,243.238,246.221,258.044,219.205,271.55z"/>
		</g>
	</g>
</g>
<g>
</g>
<g>
</g>
<g>
</g>
<g>
</g>
<g>
</g>
<g>
</g>
<g>
</g>
<g>
</g>
<g>
</g>
<g>
</g>
<g>
</g>
<g>
</g>
<g>
</g>
<g>
</g>
<g>
</g>
</svg>
