<?xml version="1.0" encoding="iso-8859-1"?>
<!-- Generator: Adobe Illustrator 18.1.1, SVG Export Plug-In . SVG Version: 6.00 Build 0)  -->
<svg version="1.1" id="Capa_1" xmlns="http://www.w3.org/2000/svg" xmlns:xlink="http://www.w3.org/1999/xlink" x="0px" y="0px"
	 viewBox="0 0 396.051 396.051" style="enable-background:new 0 0 396.051 396.051;" xml:space="preserve">
<g>
	<path style="fill:#010002;" d="M198.025,0C103.922,0,30.207,36.368,30.207,82.79v230.47c0,46.422,73.715,82.79,167.818,82.79
		s167.818-36.368,167.818-82.79V82.79C365.844,36.362,292.129,0,198.025,0z M198.025,11.934c84.497,0,155.884,32.448,155.884,70.857
		s-71.394,70.857-155.884,70.857c-84.497,0-155.884-32.448-155.884-70.857S113.523,11.934,198.025,11.934z M353.91,313.261
		c0,38.409-71.394,70.857-155.884,70.857c-84.497,0-155.884-32.448-155.884-70.857V267.62
		c24.488,30.526,84.258,51.607,155.884,51.607s131.396-21.075,155.884-51.607V313.261z M353.91,236.437
		c0,38.409-71.394,70.857-155.884,70.857c-84.497,0-155.884-32.448-155.884-70.857v-45.641
		c24.488,30.532,84.264,51.607,155.884,51.607s131.396-21.075,155.884-51.607V236.437z M353.91,159.614
		c0,38.409-71.394,70.857-155.884,70.857c-84.497,0-155.884-32.448-155.884-70.857v-45.647
		c24.488,30.538,84.264,51.613,155.884,51.613s131.396-21.075,155.884-51.613V159.614z"/>
</g>
<g>
</g>
<g>
</g>
<g>
</g>
<g>
</g>
<g>
</g>
<g>
</g>
<g>
</g>
<g>
</g>
<g>
</g>
<g>
</g>
<g>
</g>
<g>
</g>
<g>
</g>
<g>
</g>
<g>
</g>
</svg>
