<?xml version="1.0" encoding="UTF-8" standalone="no"?>
<!-- Created with Inkscape (http://www.inkscape.org/) -->

<svg
   xmlns:dc="http://purl.org/dc/elements/1.1/"
   xmlns:cc="http://creativecommons.org/ns#"
   xmlns:rdf="http://www.w3.org/1999/02/22-rdf-syntax-ns#"
   xmlns:svg="http://www.w3.org/2000/svg"
   xmlns="http://www.w3.org/2000/svg"
   xmlns:sodipodi="http://sodipodi.sourceforge.net/DTD/sodipodi-0.dtd"
   xmlns:inkscape="http://www.inkscape.org/namespaces/inkscape"
   width="210mm"
   height="297mm"
   viewBox="0 0 744.09448819 1052.3622047"
   id="svg2"
   version="1.1"
   inkscape:version="0.91 r13725"
   sodipodi:docname="template.svg">
  <defs
     id="defs4" />
  <sodipodi:namedview
     id="base"
     pagecolor="#ffffff"
     bordercolor="#666666"
     borderopacity="1.0"
     inkscape:pageopacity="0.0"
     inkscape:pageshadow="2"
     inkscape:zoom="1.979899"
     inkscape:cx="432.36748"
     inkscape:cy="820.78768"
     inkscape:document-units="px"
     inkscape:current-layer="layer1"
     showgrid="true"
     inkscape:window-width="2560"
     inkscape:window-height="1349"
     inkscape:window-x="0"
     inkscape:window-y="46"
     inkscape:window-maximized="1">
    <inkscape:grid
       type="xygrid"
       id="grid4136" />
  </sodipodi:namedview>
  <metadata
     id="metadata7">
    <rdf:RDF>
      <cc:Work
         rdf:about="">
        <dc:format>image/svg+xml</dc:format>
        <dc:type
           rdf:resource="http://purl.org/dc/dcmitype/StillImage" />
        <dc:title></dc:title>
      </cc:Work>
    </rdf:RDF>
  </metadata>
  <g
     inkscape:label="Layer 1"
     inkscape:groupmode="layer"
     id="layer1">
    <g
       id="g4175"
       transform="matrix(0.49301491,0,0,0.49301491,95.035457,148.24917)">
      <g
         transform="translate(-102.37968,0)"
         id="g28">
        <path
           style="fill:#505967"
           d="m 144.208,15.894 c 8.086,0 14.686,6.599 14.686,14.686 0,8.087 -6.599,14.655 -14.686,14.655 -8.086,0 -14.655,-6.568 -14.655,-14.655 0,-8.087 6.569,-14.686 14.655,-14.686 z"
           id="path30"
           inkscape:connector-curvature="0" />
      </g>
      <g
         transform="translate(-102.37968,0)"
         id="g32">
        <path
           style="fill:#eaeeef"
           d="m 171.132,118.849 c 0.093,0.713 -0.217,1.239 -0.465,1.549 -0.279,0.279 -0.744,0.651 -1.456,0.651 l -48.983,0 c -0.713,0 -1.177,-0.372 -1.456,-0.651 -0.248,-0.31 -0.558,-0.837 -0.465,-1.549 l 5.05,-37.179 c 0.124,-0.96 0.929,-1.673 1.89,-1.673 l 38.945,0 c 0.96,0 1.766,0.713 1.89,1.673 l 5.05,37.179 z"
           id="path34"
           inkscape:connector-curvature="0" />
      </g>
      <g
         transform="translate(-102.37968,0)"
         id="g44">
        <path
           style="fill:#2d213f"
           d="m 186.902,116.742 c 0.682,5.081 -0.868,10.255 -4.276,14.128 -3.377,3.873 -8.272,6.073 -13.415,6.073 l -48.983,0 c -5.143,0 -10.038,-2.2 -13.415,-6.073 -3.408,-3.873 -4.957,-9.047 -4.276,-14.128 l 5.05,-37.21 c 1.177,-8.83 8.799,-15.46 17.66,-15.46 l 38.945,0 c 8.861,0 16.483,6.63 17.66,15.46 l 5.05,37.21 z m -16.235,3.656 c 0.248,-0.31 0.558,-0.837 0.465,-1.549 l -5.05,-37.179 c -0.124,-0.96 -0.929,-1.673 -1.89,-1.673 l -38.945,0 c -0.96,0 -1.766,0.713 -1.89,1.673 l -5.05,37.179 c -0.093,0.713 0.217,1.239 0.465,1.549 0.279,0.279 0.744,0.651 1.456,0.651 l 48.983,0 c 0.713,0 1.178,-0.372 1.456,-0.651 z"
           id="path46"
           inkscape:connector-curvature="0" />
      </g>
      <g
         transform="translate(-102.37968,0)"
         id="g52">
        <path
           style="fill:#2d213f"
           d="m 144.208,0 c 16.885,0 30.58,13.725 30.58,30.58 0,16.855 -13.694,30.58 -30.58,30.58 -16.855,0 -30.58,-13.725 -30.58,-30.58 0,-16.855 13.726,-30.58 30.58,-30.58 z m 14.686,30.58 c 0,-8.086 -6.599,-14.686 -14.686,-14.686 -8.086,0 -14.655,6.599 -14.655,14.686 0,8.087 6.568,14.655 14.655,14.655 8.087,0 14.686,-6.569 14.686,-14.655 z"
           id="path54"
           inkscape:connector-curvature="0" />
      </g>
      <g
         transform="translate(-102.37968,0)"
         id="g64">
        <path
           inkscape:connector-curvature="0"
           id="path66"
           d="m 120.689,121.049 48.522,0 c 0.713,0 1.177,-0.372 1.456,-0.651 0.248,-0.31 0.558,-0.837 0.465,-1.549 l -5.05,-37.179 c -0.04,-0.316 -0.173,-0.589 -0.344,-0.833 -5.58,11.9 -18.032,26.707 -45.049,40.212 z"
           style="fill:#c5cbcf" />
      </g>
    </g>
    <path
       inkscape:connector-curvature="0"
       d="m 419.84861,37.049862 c 16.67286,0 30.18224,13.509386 30.18224,30.182246 0,3.96928 -0.81555,7.742061 -2.21053,11.22025 12.84128,3.477876 22.33203,15.091125 22.33203,29.022742 0,16.67287 -13.50938,30.18226 -30.18224,30.18226 l -85.51637,0 c -13.89264,0 -25.15188,-11.25955 -25.15188,-25.15188 0,-13.892322 11.25955,-25.151873 25.15188,-25.151873 0.77122,0 1.49338,0.157199 2.24511,0.226052 -1.4148,-3.143983 -2.24511,-6.612113 -2.24511,-10.286801 0,-13.892638 11.25955,-25.151873 25.15186,-25.151873 4.5393,0 8.73934,1.296894 12.41372,3.399589 4.56883,-10.866551 15.30239,-18.490712 27.82929,-18.490712 m 0,-10.06075 c -12.87085,0 -24.69002,6.081723 -32.17679,16.054127 -2.63781,-0.638859 -5.33001,-0.963003 -8.06622,-0.963003 -19.41409,0 -35.21261,15.798519 -35.21261,35.212622 0,0.491404 0.01,0.972749 0.0295,1.454092 -14.54591,4.322979 -25.18138,17.822618 -25.18138,33.75853 0,19.41411 15.79852,35.21263 35.21263,35.21263 l 85.51637,0 c 22.19464,0 40.24299,-18.04836 40.24299,-40.24301 0,-14.668567 -8.0662,-27.922661 -20.48495,-34.937518 0.24555,-1.748685 0.36345,-3.527236 0.36345,-5.305474 0,-22.184579 -18.04835,-40.242996 -40.24299,-40.242996 l 0,0 z"
       id="path3"
       style="fill:#000000;stroke-width:0.1;stroke-miterlimit:4;stroke-dasharray:none" />
    <rect
       style="opacity:1;fill:none;fill-opacity:1;stroke:#000000;stroke-width:4.9000001;stroke-linecap:round;stroke-linejoin:round;stroke-miterlimit:4;stroke-dasharray:none;stroke-opacity:1"
       id="rect4172"
       width="80"
       height="94.999977"
       x="575.06097"
       y="280.89774" />
    <path
       style="fill:none;fill-rule:evenodd;stroke:#000000;stroke-width:3.79999995;stroke-linecap:round;stroke-linejoin:miter;stroke-miterlimit:4;stroke-dasharray:none;stroke-dashoffset:0;stroke-opacity:1"
       d="m 590.06097,301.89773 50,0"
       id="path4174"
       inkscape:connector-curvature="0" />
    <path
       style="fill:none;fill-rule:evenodd;stroke:#000000;stroke-width:3.79999995;stroke-linecap:round;stroke-linejoin:miter;stroke-miterlimit:4;stroke-dasharray:none;stroke-dashoffset:0;stroke-opacity:1"
       d="m 590.06097,326.89773 50,0"
       id="path4176"
       inkscape:connector-curvature="0" />
    <path
       style="fill:none;fill-rule:evenodd;stroke:#000000;stroke-width:3.79999995;stroke-linecap:round;stroke-linejoin:miter;stroke-miterlimit:4;stroke-dasharray:none;stroke-dashoffset:0;stroke-opacity:1"
       d="m 590.06097,351.89773 50,0"
       id="path4178"
       inkscape:connector-curvature="0" />
    <rect
       style="opacity:1;fill:none;fill-opacity:1;stroke:#000000;stroke-width:3.79999995;stroke-linecap:round;stroke-linejoin:round;stroke-miterlimit:4;stroke-dasharray:none;stroke-dashoffset:0;stroke-opacity:1"
       id="rect4180"
       width="80"
       height="35"
       x="370"
       y="227.3622" />
    <text
       xml:space="preserve"
       style="font-style:normal;font-weight:normal;font-size:20px;line-height:125%;font-family:sans-serif;letter-spacing:0px;word-spacing:0px;fill:#000000;fill-opacity:1;stroke:none;stroke-width:1px;stroke-linecap:butt;stroke-linejoin:miter;stroke-opacity:1"
       x="381.46448"
       y="251.90788"
       id="text4182"
       sodipodi:linespacing="125%"><tspan
         sodipodi:role="line"
         id="tspan4184"
         x="381.46448"
         y="251.90788">EDEK</tspan></text>
    <rect
       style="opacity:1;fill:#b3b3b3;fill-opacity:1;stroke:#000000;stroke-width:4.9000001;stroke-linecap:round;stroke-linejoin:round;stroke-miterlimit:4;stroke-dasharray:none;stroke-opacity:1"
       id="rect4172-3"
       width="80"
       height="94.999977"
       x="370.29947"
       y="276.24799" />
    <path
       style="fill:#b3b3b3;fill-rule:evenodd;stroke:#000000;stroke-width:3.79999995;stroke-linecap:round;stroke-linejoin:miter;stroke-miterlimit:4;stroke-dasharray:none;stroke-dashoffset:0;stroke-opacity:1"
       d="m 385.29947,297.24797 50,0"
       id="path4174-6"
       inkscape:connector-curvature="0" />
    <path
       style="fill:#b3b3b3;fill-rule:evenodd;stroke:#000000;stroke-width:3.79999995;stroke-linecap:round;stroke-linejoin:miter;stroke-miterlimit:4;stroke-dasharray:none;stroke-dashoffset:0;stroke-opacity:1"
       d="m 385.29947,322.24797 50,0"
       id="path4176-7"
       inkscape:connector-curvature="0" />
    <path
       style="fill:#b3b3b3;fill-rule:evenodd;stroke:#000000;stroke-width:3.79999995;stroke-linecap:round;stroke-linejoin:miter;stroke-miterlimit:4;stroke-dasharray:none;stroke-dashoffset:0;stroke-opacity:1"
       d="m 385.29947,347.24797 50,0"
       id="path4178-5"
       inkscape:connector-curvature="0" />
  </g>
</svg>
